<svg xmlns="http://www.w3.org/2000/svg" version="1.1" xmlns:xlink="http://www.w3.org/1999/xlink" width="32" height="32"><svg width="32" height="32" viewBox="0 0 32 32" fill="none" xmlns="http://www.w3.org/2000/svg">
<path d="M30.6494 11.4221C30.3025 10.5978 29.7262 10.0034 28.9825 9.70402L28.9725 9.70027C28.6339 9.56774 28.2735 9.4999 27.91 9.50027H27.87C26.1675 9.5259 24.4294 10.9728 23.5456 13.1009C22.8975 14.6571 22.8231 16.3309 23.3469 17.5784C23.6931 18.4034 24.2706 18.9978 25.0175 19.2971L25.0256 19.3003C25.3641 19.4328 25.7245 19.5006 26.0881 19.5003C27.8069 19.5003 29.5631 18.0534 30.4631 15.8971C31.1031 14.3428 31.1737 12.6703 30.6494 11.4221ZM23.8469 20.6009C22.865 20.0109 21.9369 19.4528 21.3306 18.4503C19.6581 15.6753 18.6481 14.0003 16 14.0003C13.3519 14.0003 12.3394 15.6753 10.6631 18.4503C10.0556 19.454 9.1256 20.0128 8.1406 20.6053C7.01123 21.284 5.84435 21.9853 5.3406 23.3653C5.14472 23.8627 5.04607 24.3931 5.04998 24.9278C5.04998 27.1746 6.79998 29.0028 8.94998 29.0028C10.0594 29.0028 11.24 28.6184 12.4894 28.2115C13.6906 27.8203 14.9325 27.4159 16.0062 27.4159C17.08 27.4159 18.3187 27.8203 19.5156 28.2115C20.7625 28.6159 21.9375 29.0003 23.05 29.0003C25.1969 29.0003 26.9437 27.1721 26.9437 24.9253C26.9455 24.3903 26.8447 23.8599 26.6469 23.3628C26.1431 21.9815 24.9756 21.2796 23.8469 20.6009ZM9.37498 11.8034C10.1187 12.7365 11.0625 13.2503 12.0325 13.2503C12.1649 13.2502 12.2971 13.2404 12.4281 13.2209C14.4512 12.9234 15.7119 10.4546 15.2981 7.5959C15.125 6.39402 14.6625 5.27465 14 4.44465C13.2575 3.5134 12.3125 3.00027 11.3431 3.00027C11.2107 3.00031 11.0784 3.01012 10.9475 3.02965C8.92435 3.32715 7.66373 5.7959 8.07748 8.65465C8.24998 9.85465 8.71248 10.9728 9.37498 11.8034ZM19.5725 13.2209C19.7034 13.2404 19.8357 13.2502 19.9681 13.2503C20.9387 13.2503 21.8819 12.7365 22.6256 11.8034C23.2875 10.9728 23.7475 9.85465 23.9225 8.6534C24.3362 5.7959 23.0756 3.32715 21.0525 3.0284C20.9215 3.00887 20.7893 2.99906 20.6569 2.99902C19.6875 3.00027 18.7425 3.5134 18 4.44465C17.3375 5.27465 16.875 6.39402 16.7025 7.59715C16.2887 10.4546 17.5494 12.9234 19.5725 13.2209ZM6.97435 19.3003L6.9831 19.2971C7.72873 18.9978 8.3056 18.404 8.65123 17.5796C9.17498 16.3296 9.10123 14.6578 8.45435 13.1015C7.55873 10.9478 5.8031 9.50027 4.08623 9.50027C3.72265 9.49975 3.36223 9.56759 3.02373 9.70027L3.01498 9.7034C2.27123 10.0003 1.69435 10.5965 1.34873 11.4209C0.824977 12.6709 0.898727 14.3428 1.5456 15.899C2.44123 18.0528 4.19685 19.5003 5.91373 19.5003C6.27667 19.5006 6.63644 19.4327 6.97435 19.3003Z" fill="black"></path>
</svg><style>@media (prefers-color-scheme: light) { :root { filter: none; } }
@media (prefers-color-scheme: dark) { :root { filter: invert(100%); } }
</style></svg>